<?xml version="1.0" standalone="no"?>
<!DOCTYPE svg PUBLIC "-//W3C//DTD SVG 20010904//EN"
 "http://www.w3.org/TR/2001/REC-SVG-20010904/DTD/svg10.dtd">
<svg version="1.0" xmlns="http://www.w3.org/2000/svg"
 width="800.000000pt" height="800.000000pt" viewBox="0 0 800.000000 800.000000"
 preserveAspectRatio="xMidYMid meet">
<metadata>
Created by potrace 1.14, written by Peter Selinger 2001-2017
</metadata>
<g transform="translate(0.000000,800.000000) scale(0.100000,-0.100000)"
fill="#000000" stroke="none">
<path d="M1770 5571 c-219 -48 -421 -162 -584 -331 -129 -134 -215 -275 -271
-446 -36 -111 -48 -210 -43 -351 4 -110 10 -142 37 -223 58 -173 146 -297 283
-400 73 -55 83 -60 90 -44 4 11 23 141 43 289 70 521 84 613 105 665 63 161
206 286 371 325 90 21 1156 22 1235 1 114 -30 198 -97 249 -196 125 -244 -45
-575 -341 -667 -54 -16 -107 -18 -631 -18 -315 0 -573 -1 -573 -2 0 0 -16
-117 -35 -259 -19 -141 -35 -259 -35 -261 0 -2 260 -3 579 -3 631 0 667 2 831
58 170 58 307 145 445 286 136 137 211 252 269 416 59 163 76 321 52 479 -42
278 -210 505 -460 621 -165 77 -124 74 -866 77 -614 2 -672 1 -750 -16z"/>
<path d="M5061 5575 c-226 -50 -425 -159 -587 -323 -142 -143 -251 -328 -294
-498 -31 -119 -220 -1521 -220 -1626 0 -270 132 -532 340 -673 38 -27 71 -47
73 -44 2 2 22 144 45 314 23 171 71 524 107 785 36 261 70 511 76 555 70 526
88 628 122 700 49 103 138 194 238 244 43 22 102 44 132 51 37 7 234 10 633 8
578 -3 579 -3 636 -26 63 -25 147 -96 183 -152 134 -213 19 -533 -238 -660
-117 -58 -164 -61 -770 -58 -511 3 -518 3 -522 -17 -7 -34 -65 -469 -65 -488
0 -17 28 -18 618 -14 596 3 620 4 695 25 438 122 764 460 851 884 21 99 21
277 0 376 -59 290 -263 516 -554 615 l-95 32 -670 2 c-544 1 -682 -1 -734 -12z"/>
</g>
</svg>
